# AST/ASF file generated using VICON BodyLanguage
# -----------------------------------------------
:version 1.10
:name VICON
:units
  mass 1.0
  length 0.45
  angle deg
:documentation
   .ast/.asf automatically generated from VICON data using
   VICON BodyBuilder and BodyLanguage model FoxedUp or BRILLIANT.MOD
:root
   order TX TY TZ RX RY RZ
   axis XYZ
   position 0 0 0  
   orientation 0 0 0 
:bonedata
  begin
     id 1 
     name lhipjoint
     direction 0.575328 -0.747301 0.332475 
     length 2.40933 
     axis 0 0 0  XYZ
  end
  begin
     id 2 
     name lfemur
     direction 0.34202 -0.939693 0  
     length 7.31453  
     axis 0 0 20  XYZ
    dof rx ry rz
    limits (-160.0 20.0)
           (-70.0 70.0)
           (-60.0 70.0)
  end
  begin
     id 3 
     name ltibia
     direction 0.34202 -0.939693 0   
     length 7.82185   
     axis 0 0 20   XYZ
    dof rx
    limits (-10.0 170.0)
  end
  begin
     id 4 
     name lfoot
     direction 0.0795993 -0.218697 0.972541   
     length 2.19173   
     axis -90 7.62852e-016 20   XYZ
    dof rx rz
    limits (-45.0 90.0)
           (-70.0 20.0)
  end
  begin
     id 5 
     name ltoes
     direction 1.53537e-011 -4.21894e-011 1   
     length 1.10023   
     axis -90 7.62852e-016 20   XYZ
    dof rx
    limits (-90.0 20.0)
  end
  begin
     id 6 
     name rhipjoint
     direction -0.513884 -0.783789 0.348708   
     length 2.29716  
     axis 0 0 0  XYZ 
  end
  begin
     id 7 
     name rfemur
     direction -0.34202 -0.939693 0   
     length 7.59573   
     axis 0 0 -20   XYZ
    dof rx ry rz
    limits (-160.0 20.0)
           (-70.0 70.0)
           (-70.0 60.0)
  end
  begin
     id 8 
     name rtibia
     direction -0.34202 -0.939693 0   
     length 7.66402   
     axis 0 0 -20   XYZ
    dof rx
    limits (-10.0 170.0)
 end
 begin
     id 9 
     name rfoot
     direction -0.137793 -0.378584 0.915253   
     length 2.27056  
     axis -90 -7.62852e-016 -20   XYZ
    dof rx rz
    limits (-45.0 90.0)
           (-20.0 70.0)
  end
  begin
     id 10 
     name rtoes
     direction -1.53493e-011 -4.22159e-011 1   
     length 1.11766   
     axis -90 -7.62852e-016 -20   XYZ
    dof rx
    limits (-90.0 20.0)
  end
  begin
     id 11 
     name lowerback
     direction -0.00732775 0.998356 -0.05685   
     length 2.16513   
     axis 0 0 0   XYZ
    dof rx ry rz
    limits (-20.0 45.0)
           (-30.0 30.0)
           (-30.0 30.0)
  end
  begin
     id 12 
     name upperback
     direction 0.0218081 0.999627 -0.0164647   
     length 2.16755   
     axis 0 0 0   XYZ
    dof rx ry rz
    limits (-20.0 45.0)
           (-30.0 30.0)
           (-30.0 30.0)
  end
  begin
     id 13 
     name thorax
     direction 0.02365 0.999661 0.0108914   
     length 2.16932   
     axis 0 0 0   XYZ
    dof rx ry rz
    limits (-20.0 45.0)
           (-30.0 30.0)
           (-30.0 30.0)
  end
  begin
     id 14 
     name lowerneck
     direction -0.0523929 0.978385 0.200044   
     length 1.63877   
     axis 0 0 0   XYZ
    dof rx ry rz
    limits (-20.0 45.0)
           (-30.0 30.0)
           (-30.0 30.0)
  end
  begin
     id 15 
     name upperneck
     direction 0.0448674 0.981321 -0.187074   
     length 1.69014   
     axis 0 0 0   XYZ
    dof rx ry rz
    limits (-20.0 45.0)
           (-30.0 30.0)
           (-30.0 30.0)
  end
  begin
     id 16
     name head
     direction 0.0199089 0.996118 -0.0857429  
     length 1.70094  
     axis 0 0 0   XYZ
    dof rx ry rz
    limits (-20.0 45.0)
           (-30.0 30.0)
           (-30.0 30.0)
  end
  begin
     id 17 
     name lclavicle
     direction 0.940366 0.30191 -0.156722  
     length 3.37521  
     axis 0 0 0   XYZ
    dof ry rz
    limits (-20.0 10.0)
           (0.0 20.0)
  end
  begin
     id 18 
     name lhumerus
     direction 1 -4.4897e-011 -1.7911e-027   
     length 5.25287   
     axis 180 -30 -90   XYZ
    dof rx ry rz
    limits (-60.0 90.0)
           (-90.0 90.0)
           (-90.0 90.0)
  end
  begin
     id 19
     name lradius
     direction 1 -4.48951e-011 1.04424e-027   
     length 3.51014   
     axis 180 -30 -90   XYZ
    dof rx
    limits (-10.0 170.0)
  end
  begin
     id 20
     name lwrist
     direction 1 -4.48997e-011 -9.5942e-028   
     length 1.75507   
     axis 8.48502e-016 90 90   XYZ
    dof ry
    limits (-180.0 0.0)
 end
  begin
     id 21 
     name lhand
     direction 1 -4.48831e-011 -1.90777e-027   
     length 0.706179   
     axis 1.22306e-015 90 90   XYZ
    dof rx rz
    limits (-90.0 90.0)
           (-45.0 45.0)
  end
  begin
     id 22 
     name lfingers
     direction 1 -4.49108e-011 -3.85244e-027   
     length 0.569339   
     axis 2.44611e-015 90 90   XYZ
    dof rx
    limits (0.0 90.0)
  end
  begin
     id 23
     name lthumb
     direction 0.707107 -6.34953e-011 0.707107   
     length 0.817461   
     axis -90 45 -1.62303e-014   XYZ
    dof rx rz
    limits (-45.0 45.0)
           (-45.0 45.0)
  end
  begin
     id 24 
     name rclavicle
     direction -0.905329 0.382405 -0.184787   
     length 3.30787  
     axis 0 0 0   XYZ 
    dof ry rz
    limits (-10.0 20.0)
           (-20.0 0.0)
  end
  begin
     id 25 
     name rhumerus
     direction -1 -4.48953e-011 -9.15316e-029  
     length 5.28721   
     axis 180 30 90   XYZ
    dof rx ry rz
    limits (-90.0 60.0)
           (-90.0 90.0)
           (-90.0 90.0)
  end
  begin
     id 26 
     name rradius
     direction -1 -4.48987e-011 9.37824e-028   
     length 3.50544   
     axis 180 30 90   XYZ
    dof rx
    limits (-10.0 170.0)
  end
  begin
     id 27 
     name rwrist
     direction -1 -4.48967e-011 -9.58414e-028   
     length 1.75272   
     axis 8.48502e-016 -90 -90   XYZ
    dof ry
    limits (-180.0 0.0)
  end
  begin
     id 28
     name rhand
     direction -1 -4.48904e-011 -1.91266e-027   
     length 0.884996   
     axis 1.22306e-015 -90 -90   XYZ
    dof rx rz
    limits (-90.0 90.0)
           (-45.0 45.0)
  end
  begin
     id 29
     name rfingers
     direction -1 -4.4909e-011 -3.85015e-027   
     length 0.713507   
     axis 2.44611e-015 -90 -90   XYZ
    dof rx
    limits (0.0 90.0)
  end
  begin
     id 30
     name rthumb
     direction -0.707107 -6.34853e-011 0.707107   
     length 1.02446   
     axis -90 -45 1.62303e-014   XYZ
    dof rx rz
    limits (-45.0 45.0)
           (-45.0 45.0)
  end
:hierarchy
  begin
    root lhipjoint rhipjoint lowerback
    lhipjoint lfemur
    lfemur ltibia
    ltibia lfoot
    lfoot ltoes
    rhipjoint rfemur
    rfemur rtibia
    rtibia rfoot
    rfoot rtoes
    lowerback upperback
    upperback thorax
    thorax lowerneck lclavicle rclavicle
    lowerneck upperneck
    upperneck head
    lclavicle lhumerus
    lhumerus lradius
    lradius lwrist
    lwrist lhand lthumb
    lhand lfingers
    rclavicle rhumerus
    rhumerus rradius
    rradius rwrist
    rwrist rhand rthumb
    rhand rfingers
  end

#!OML:ASF F:\twosubjects\two\Thursday\Session 1\justin.ASF
:FULLY-SPECIFIED
:DEGREES
113
root 8.32448 15.2408 -18.4375 -13.1501 -85.709 16.602
lowerback 9.05678 0.465882 -5.01151
upperback 0.664841 0.155133 1.4626
thorax -4.41078 0.176843 4.33678
lowerneck -23.2751 7.36105 -3.3435
upperneck 16.8785 10.2746 4.09841
head 8.65466 5.07085 3.33146
rclavicle -8.10048e-015 1.39149e-014
rhumerus -33.1738 -24.4205 -81.9463
rradius 32.4174
rwrist -35.9943
rhand -10.0588 -4.34275
rfingers 7.12502
rthumb 15.927 -33.7079
lclavicle -8.10048e-015 1.39149e-014
lhumerus -30.9381 27.418 85.3565
lradius 24.085
lwrist -0.0622181
lhand 5.86758 49.7401
lfingers 7.12502
lthumb 31.1971 77.1039
rfemur -32.8892 0.574536 25.3501
rtibia 75.8344
rfoot -39.037 -11.3398
rtoes -6.0008
lfemur -31.8628 9.62309 -20.559
ltibia 72.1288
lfoot -31.901 -8.91255
ltoes -5.98991
114
root 8.33438 15.1912 -18.4408 -15.3654 -85.643 18.5706
lowerback 9.18102 0.586975 -5.09827
upperback 0.87629 0.298921 1.43252
thorax -4.27538 0.238966 4.33581
lowerneck -23.5039 7.22891 -3.38225
upperneck 16.7608 10.1835 3.7761
head 8.67461 4.98889 3.22441
rclavicle -1.23246e-014 -4.77083e-015
rhumerus -32.8143 -24.3063 -82.0701
rradius 32.2504
rwrist -35.5422
rhand -10.7501 -4.11391
rfingers 7.12502
rthumb 15.2612 -33.5309
lclavicle -1.23246e-014 -4.77083e-015
lhumerus -30.7839 28.472 83.8472
lradius 24.1055
lwrist -1.93972
lhand 8.99043 50.504
lfingers 7.12502
lthumb 34.1682 77.2502
rfemur -32.8509 -0.0231293 25.3472
rtibia 76.157
rfoot -39.0368 -12.067
rtoes -8.63698
lfemur -31.7336 9.66502 -20.6007
ltibia 72.4423
lfoot -32.3595 -9.73505
ltoes -4.03474
115
root 8.3325 15.1779 -18.4394 -15.9929 -85.5319 19.1029
lowerback 9.03563 0.608519 -4.90149
upperback 0.977218 0.349121 1.29459
thorax -4.09184 0.251438 4.07188
lowerneck -23.3855 7.22128 -3.04439
upperneck 16.6529 10.1447 3.36895
head 8.66224 4.94636 3.02329
rclavicle 5.11871e-015 2.78299e-015
rhumerus -32.8849 -25.1303 -81.516
rradius 32.4607
rwrist -34.1309
rhand -10.9115 -4.25014
rfingers 7.12502
rthumb 15.1057 -33.6789
lclavicle 5.11871e-015 2.78299e-015
lhumerus -30.8366 30.4317 81.6382
lradius 24.2809
lwrist -2.35393
lhand 8.08278 51.2163
lfingers 7.12502
lthumb 33.3057 78.1515
rfemur -32.6789 -0.539538 25.2723
rtibia 76.0579
rfoot -39.4583 -11.7342
rtoes -7.53947
lfemur -31.5729 9.77593 -20.6703
ltibia 72.4103
lfoot -32.7865 -9.70436
ltoes -3.73791
116
root 8.32113 15.1947 -18.4343 -14.537 -85.2895 17.7144
lowerback 8.76526 0.503872 -4.66114
upperback 0.89592 0.249293 1.32599
thorax -4.01384 0.198982 3.98026
lowerneck -23.1307 7.28741 -2.94507
upperneck 16.7142 10.2491 3.13133
head 8.65609 4.97292 2.93332
rclavicle -9.54166e-015 -3.18055e-015
rhumerus -33.2927 -26.5042 -80.0054
rradius 32.7899
rwrist -32.6885
rhand -11.4824 -4.97671
rfingers 7.12502
rthumb 14.5557 -34.446
lclavicle -9.54166e-015 -3.18055e-015
lhumerus -31.0403 32.6938 79.4125
lradius 24.454
lwrist -0.465123
lhand 2.44802 51.6817
lfingers 7.12502
lthumb 27.933 79.624
rfemur -32.3594 -1.08312 25.1867
rtibia 75.5311
rfoot -40.1339 -10.9514
rtoes -4.88924
lfemur -31.3885 9.82564 -20.721
ltibia 72.0226
lfoot -33.0091 -9.41803
ltoes -3.4849
117
root 8.30805 15.2335 -18.4275 -10.9355 -84.8919 14.1957
lowerback 8.54175 0.34822 -4.29364
upperback 0.72767 0.0945899 1.46826
thorax -4.04776 0.122912 3.93924
lowerneck -22.9867 7.32278 -3.26332
upperneck 17.0334 10.3426 3.41326
head 8.703 5.02248 3.09299
rclavicle 4.87022e-015 -5.96354e-015
rhumerus -33.83 -28.4569 -77.7415
rradius 32.9758
rwrist -32.1206
rhand -12.6347 -6.20502
rfingers 7.12502
rthumb 13.4453 -35.7511
lclavicle 4.87022e-015 -5.96354e-015
lhumerus -31.0829 34.5441 77.2846
lradius 24.467
lwrist 2.72724
lhand -5.15632 52.0626
lfingers 7.12502
lthumb 20.6432 80.9848
rfemur -31.9135 -1.85151 25.3026
rtibia 74.6487
rfoot -40.4256 -10.9873
rtoes -5.17839
lfemur -31.1544 9.68427 -20.6253
ltibia 71.3333
lfoot -32.6965 -10.1928
ltoes 0.927947
118
root 8.29317 15.2963 -18.4192 -9.4331 -84.5301 12.8389
lowerback 8.23765 0.356975 -4.03735
upperback 0.467072 0.147172 1.52654
thorax -4.15386 0.154554 3.84823
lowerneck -22.7995 7.22015 -3.66167
upperneck 17.5177 10.1985 4.0258
head 8.78478 4.99007 3.35101
rclavicle 1.44119e-014 8.34896e-015
rhumerus -34.6941 -30.6889 -74.8666
rradius 33.1348
rwrist -32.9283
rhand -14.268 -7.10646
rfingers 7.12502
rthumb 11.8707 -36.75
lclavicle 1.44119e-014 8.34896e-015
lhumerus -31.3056 36.5172 74.5876
lradius 24.4317
lwrist 3.87553
lhand -8.63441 52.7466
lfingers 7.12502
lthumb 17.2983 81.9968
rfemur -31.4908 -2.42443 25.237
rtibia 73.5513
rfoot -40.3665 -10.98
rtoes -5.67083
lfemur -30.8245 9.4865 -20.7139
ltibia 70.3396
lfoot -31.8547 -11.2103
ltoes 6.41317
119
root 8.27539 15.3882 -18.4081 -10.4673 -84.2776 14.013
lowerback 7.86733 0.346548 -4.27483
upperback 0.270061 0.136938 1.75155
thorax -4.15232 0.161345 4.21931
lowerneck -22.7837 7.19484 -3.92067
upperneck 17.9966 10.2222 4.17077
head 8.92316 4.98809 3.46214
rclavicle 1.33683e-014 4.37326e-015
rhumerus -35.2147 -32.4506 -71.6812
rradius 33.0609
rwrist -34.2021
rhand -16.56 -6.57086
rfingers 7.12502
rthumb 9.65993 -36.3294
lclavicle 1.33683e-014 4.37326e-015
lhumerus -31.8392 39.2731 71.6645
lradius 24.722
lwrist 3.83831
lhand -8.91747 54.1543
lfingers 7.12502
lthumb 17.0259 83.4282
rfemur -30.909 -2.78057 24.8221
rtibia 72.2436
rfoot -40.1903 -10.0984
rtoes -4.23972
lfemur -30.2274 9.25986 -21.0499
ltibia 69.0543
lfoot -31.3019 -10.7997
ltoes 6.01623
